<svg width="200" height="50" viewBox="0 0 200 50" fill="none" xmlns="http://www.w3.org/2000/svg">
  <path d="M25 0L50 43.3H0L25 0Z" fill="#EAB308"/>
  <path d="M25 8L42 43.3H8L25 8Z" fill="white"/>
  <path d="M60 13H68.2L78.1 38H78.3L88.2 13H96.4V43H90.5V20.4H90.3L81.2 43H75.2L66.1 20.4H65.9V43H60V13Z" fill="#333333"/>
  <path d="M108.7 43H102.8V13H108.7V43Z" fill="#333333"/>
  <path d="M139.5 43H133.1L118.5 21.9H118.3V43H112.4V13H118.8L133.4 34.1H133.6V13H139.5V43Z" fill="#333333"/>
  <path d="M159.5 43.5C156.2 43.5 153.3 42.7 150.8 41.1C148.4 39.5 146.5 37.3 145.2 34.5C143.9 31.7 143.3 28.6 143.3 25.2C143.3 21.8 144 18.7 145.3 15.9C146.6 13.1 148.5 10.9 151 9.3C153.5 7.7 156.3 6.9 159.7 6.9C163.1 6.9 165.9 7.7 168.4 9.3C170.9 10.9 172.8 13.1 174.1 15.9C175.4 18.7 176 21.8 176 25.2C176 28.6 175.4 31.7 174.1 34.5C172.8 37.3 170.9 39.5 168.4 41.1C165.9 42.7 162.9 43.5 159.5 43.5ZM159.5 38.2C161.5 38.2 163.2 37.7 164.7 36.6C166.2 35.5 167.3 34 168.1 32.1C168.9 30.2 169.3 27.9 169.3 25.2C169.3 22.5 168.9 20.2 168.1 18.3C167.3 16.4 166.2 14.9 164.7 13.8C163.2 12.7 161.5 12.2 159.5 12.2C157.5 12.2 155.8 12.7 154.3 13.8C152.8 14.9 151.7 16.4 150.9 18.3C150.1 20.2 149.7 22.5 149.7 25.2C149.7 27.9 150.1 30.2 150.9 32.1C151.7 34 152.8 35.5 154.3 36.6C155.8 37.7 157.5 38.2 159.5 38.2Z" fill="#333333"/>
  <path d="M188.3 43H182.4V13H193.8C196.3 13 198.4 13.5 200 14.4C201.6 15.3 202.8 16.5 203.6 18C204.4 19.5 204.8 21.1 204.8 22.9C204.8 24.7 204.4 26.3 203.6 27.8C202.8 29.3 201.6 30.5 200 31.4C198.4 32.3 196.3 32.8 193.8 32.8H188.3V43ZM188.3 27.8H193.2C194.7 27.8 195.8 27.4 196.6 26.7C197.4 26 197.8 24.9 197.8 23.5C197.8 22.1 197.4 21 196.6 20.3C195.8 19.6 194.7 19.2 193.2 19.2H188.3V27.8Z" fill="#333333"/>
</svg> 